<?xml version="1.0" encoding="utf-8"?>
<!-- Generator: Adobe Illustrator 23.0.5, SVG Export Plug-In . SVG Version: 6.00 Build 0)  -->
<svg version="1.1" id="Layer_1" xmlns="http://www.w3.org/2000/svg" xmlns:xlink="http://www.w3.org/1999/xlink" x="0px" y="0px"
	 viewBox="0 0 32 32" style="enable-background:new 0 0 32 32;" xml:space="preserve">
<style type="text/css">
	.st0{fill:url(#SVGID_1_);}
	.st1{fill:url(#SVGID_2_);}
	.st2{fill:url(#SVGID_3_);}
	.st3{fill:url(#SVGID_4_);}
	.st4{fill:url(#SVGID_5_);}
	.st5{fill:url(#SVGID_6_);}
	.st6{fill:url(#SVGID_7_);}
	.st7{opacity:0.3;fill:#010101;enable-background:new    ;}
	.st8{fill:url(#SVGID_8_);}
	.st9{fill:url(#SVGID_9_);}
	.st10{fill:url(#SVGID_10_);}
	.st11{fill:url(#SVGID_11_);}
</style>
<g>
	<g>
		
			<radialGradient id="SVGID_1_" cx="16.3133" cy="16.78" r="12.0307" gradientTransform="matrix(1 0 0 -1 0 37.4)" gradientUnits="userSpaceOnUse">
			<stop  offset="0" style="stop-color:#FFFFFF"/>
			<stop  offset="0.28" style="stop-color:#E1E435"/>
			<stop  offset="0.8" style="stop-color:#3A9948"/>
		</radialGradient>
		<path class="st0" d="M11.3,29.4c-0.8,0.3-1.6,0.6-2.2,0.8c-0.2-0.3-0.4-0.4-0.7-0.4c-0.5,0-0.8,0.4-0.8,0.8s0.4,0.8,0.8,0.8
			c0.4,0,0.8-0.3,0.8-0.8c0.8-0.2,1.8-0.5,2.9-0.8c1.5-0.5,3.3-1.2,5.3-2.1c-1.7,1-3.2,1.8-4.5,2.5c1.1,0.4,2.3,0.7,3.5,0.7
			c4.7,0,8.6-3.6,9.1-8.2c-0.3,0-0.6-0.1-0.8-0.2C19.2,25.8,14.6,28.1,11.3,29.4z M8.4,31C8.2,31,8,30.8,8,30.6
			c0-0.2,0.2-0.4,0.4-0.4c0.2,0,0.4,0.2,0.4,0.4C8.8,30.8,8.6,31,8.4,31z"/>
		
			<linearGradient id="SVGID_2_" gradientUnits="userSpaceOnUse" x1="23.3109" y1="5.2307" x2="19.0718" y2="11.4051" gradientTransform="matrix(1 0 0 -1 0 37.4)">
			<stop  offset="0" style="stop-color:#FFFFFF"/>
			<stop  offset="1" style="stop-color:#FFFFFF;stop-opacity:0"/>
		</linearGradient>
		<path class="st1" d="M14.4,30.1c0.7,0.2,1.3,0.2,2,0.2c4.1,0,7.6-2.9,8.3-6.9C23.2,27.6,18.1,30.4,14.4,30.1z"/>
	</g>
	<g>
		
			<radialGradient id="SVGID_3_" cx="27.3407" cy="26.5482" r="6.5532" gradientTransform="matrix(1 0 0 -1 0 37.4)" gradientUnits="userSpaceOnUse">
			<stop  offset="0" style="stop-color:#FFFFFF"/>
			<stop  offset="0.5" style="stop-color:#FAAF3C"/>
			<stop  offset="1" style="stop-color:#C3292E"/>
		</radialGradient>
		<path class="st2" d="M24.3,13.2c-0.2,0.5-0.7,1.2-1.5,2c0.4,0.4,0.8,0.8,1.1,1.3C26.4,13.8,26.4,12.8,24.3,13.2z"/>
		
			<radialGradient id="SVGID_4_" cx="3.1967" cy="7.5647" r="7.2173" gradientTransform="matrix(1 0 0 -1 0 37.4)" gradientUnits="userSpaceOnUse">
			<stop  offset="0" style="stop-color:#FFFFFF"/>
			<stop  offset="0.5" style="stop-color:#FAAF3C"/>
			<stop  offset="1" style="stop-color:#C3292E"/>
		</radialGradient>
		<path class="st3" d="M7.7,28.2c0.2-0.3,0.6-0.8,1.2-1.3c-0.3-0.4-0.5-0.8-0.7-1.3C5.6,27.9,5.7,28.7,7.7,28.2z"/>
		
			<radialGradient id="SVGID_5_" cx="17.0809" cy="33.1832" r="32.3339" gradientTransform="matrix(1 0 0 -1 0 37.4)" gradientUnits="userSpaceOnUse">
			<stop  offset="0" style="stop-color:#FFFFFF"/>
			<stop  offset="0.5" style="stop-color:#FAAF3C"/>
			<stop  offset="1" style="stop-color:#C3292E"/>
		</radialGradient>
		<path class="st4" d="M24,16.7c0.5,0.8,0.9,1.6,1.2,2.6c-0.8,0.2-1.4,0.9-1.4,1.7c-5.9,3.4-10.7,5.9-14,7.1C9,27.3,8.4,26.4,8,25.3
			c-0.5-1.1-0.7-2.4-0.7-3.6c1.1,0.2,2-0.7,2-1.7c4.9-2.8,8.8-4.9,11.7-6.1C22.2,14.6,23.2,15.6,24,16.7z M7.5,19.2
			c-0.4,0-0.8,0.3-0.8,0.8c0,0.4,0.3,0.8,0.8,0.8c0.4,0,0.8-0.3,0.8-0.8C8.3,19.6,7.9,19.2,7.5,19.2z M25.5,20.2
			c-0.4,0-0.8,0.3-0.8,0.8s0.3,0.8,0.8,0.8s0.8-0.3,0.8-0.8S25.9,20.2,25.5,20.2z"/>
		
			<linearGradient id="SVGID_6_" gradientUnits="userSpaceOnUse" x1="34.3751" y1="16.361" x2="19.4453" y2="16.361" gradientTransform="matrix(1 0 0 -1 0 37.4)">
			<stop  offset="0" style="stop-color:#FFFFFF"/>
			<stop  offset="1" style="stop-color:#FFFFFF;stop-opacity:0"/>
		</linearGradient>
		<path class="st5" d="M20.2,14.2c-2.8,1.2-6.5,3.2-11,5.8c0,0.8-0.6,1.5-1.3,1.7c0,2.3,0.9,4.5,2.5,6.2c3.3-1.3,7.9-3.7,13.3-6.8
			c0-0.6,0.3-1.1,0.8-1.5C23.9,17.2,22.4,15.3,20.2,14.2z"/>
		
			<linearGradient id="SVGID_7_" gradientUnits="userSpaceOnUse" x1="-1.3802" y1="16.361" x2="13.0219" y2="16.361" gradientTransform="matrix(1 0 0 -1 0 37.4)">
			<stop  offset="0" style="stop-color:#FFFFFF"/>
			<stop  offset="1" style="stop-color:#FFFFFF;stop-opacity:0"/>
		</linearGradient>
		<path class="st6" d="M20.2,14.2c-2.8,1.2-6.5,3.2-11,5.8c0,0.8-0.6,1.5-1.3,1.7c0,2.3,0.9,4.5,2.5,6.2c3.3-1.3,7.9-3.7,13.3-6.8
			c0-0.6,0.3-1.1,0.8-1.5C23.9,17.2,22.4,15.3,20.2,14.2z"/>
		<path class="st7" d="M23.1,20.4c-5.8,3.4-10.7,5-15,5.2c0.3,0.8,0.8,1.5,1.3,2.1c3.1-1.1,8.2-3.6,14-7.1c0.1-0.9,0.8-1.5,1.7-1.6
			c0-0.1,0-0.1-0.1-0.2C24.1,18.7,23.2,19.4,23.1,20.4z"/>
		<path class="st7" d="M21.4,14.2c-2.8,1.1-6.8,3.3-11.9,6.3C9.4,21.3,8.7,22,7.7,22c-0.2,0-0.3,0-0.5-0.1c0,0,0,0.1,0,0.1
			c0.2,0.1,0.4,0.2,0.7,0.2c0.9,0,1.6-0.7,1.7-1.5c5.1-2.8,10.8-5.1,14.1-4.2C23.2,15.6,22.4,14.8,21.4,14.2z"/>
		
			<radialGradient id="SVGID_8_" cx="17.1092" cy="19.5269" r="7.8334" gradientTransform="matrix(1 0 0 -1 0 37.4)" gradientUnits="userSpaceOnUse">
			<stop  offset="0" style="stop-color:#FFFFFF"/>
			<stop  offset="0.5" style="stop-color:#FAAF3C"/>
			<stop  offset="1" style="stop-color:#C3292E"/>
		</radialGradient>
		<path class="st8" d="M9.3,20c0,1-0.8,1.7-1.7,1.7c-0.5,0-0.9-0.2-1.2-0.5C6.6,21.7,7.1,22,7.7,22c0.9,0,1.7-0.7,1.7-1.6
			c13.8-8.1,19.8-9.6,14.3-3.9c0.1,0.1,0.1,0.2,0.2,0.2C30.2,10.3,23.7,11.5,9.3,20z"/>
		
			<radialGradient id="SVGID_9_" cx="15.5304" cy="14.0383" r="8.1831" gradientTransform="matrix(1 0 0 -1 0 37.4)" gradientUnits="userSpaceOnUse">
			<stop  offset="0" style="stop-color:#FFFFFF"/>
			<stop  offset="0.5" style="stop-color:#FAAF3C"/>
			<stop  offset="1" style="stop-color:#C3292E"/>
		</radialGradient>
		<path class="st9" d="M23.4,20.6C11,27.9,2.2,31,8.1,25.6c0-0.1-0.1-0.2-0.1-0.3c-7.1,6.5,1.6,4,15.8-4.3c0-1,0.8-1.7,1.7-1.7
			c0.3,0,0.6,0.1,0.8,0.2c-0.3-0.3-0.7-0.4-1.2-0.4C24.3,19,23.5,19.7,23.4,20.6z"/>
	</g>
	<g>
		
			<radialGradient id="SVGID_10_" cx="16.6817" cy="52.3509" r="48.3801" gradientTransform="matrix(1 0 0 -1 0 37.4)" gradientUnits="userSpaceOnUse">
			<stop  offset="0" style="stop-color:#FFFFFF"/>
			<stop  offset="0.5" style="stop-color:#28B1E6"/>
			<stop  offset="1" style="stop-color:#3E4499"/>
		</radialGradient>
		<path class="st10" d="M23.5,10.2c-0.4,0-0.8,0.3-0.8,0.7C21.8,11,20.5,11.4,19,12c-0.8,0.3-1.6,0.7-2.6,1.1
			c0.9-0.6,1.8-1.1,2.6-1.5V4.4c0.8-0.3,1.3-0.9,1.3-1.4c0-1-1.8-1.9-3.9-1.9S12.5,2,12.5,3c0,0.6,0.5,1.1,1.3,1.4
			c0.6,0.2,1.3,0.4,2.1,0.4c-0.7,0.2-1.4,0.1-2.1,0V13C11.2,13.8,9,15.8,8,18.3c0.1,0,0.3,0.1,0.4,0.2c4.3-2.5,7.9-4.4,10.6-5.6
			c1.5-0.7,2.8-1.2,3.8-1.5c0.1,0.3,0.4,0.5,0.7,0.5c0.5,0,0.8-0.4,0.8-0.8C24.4,10.6,24,10.2,23.5,10.2z M14,2.5c0-0.6,1.1-1,2.4-1
			c1.3,0,2.4,0.5,2.4,1s-1.1,1-2.4,1S14,3.1,14,2.5z M23.5,11.4c-0.2,0-0.4-0.2-0.4-0.4s0.2-0.4,0.4-0.4c0.2,0,0.4,0.2,0.4,0.4
			S23.7,11.4,23.5,11.4z"/>
		
			<linearGradient id="SVGID_11_" gradientUnits="userSpaceOnUse" x1="11.1455" y1="24.8352" x2="12.9886" y2="21.8862" gradientTransform="matrix(1 0 0 -1 0 37.4)">
			<stop  offset="0" style="stop-color:#FFFFFF"/>
			<stop  offset="1" style="stop-color:#FFFFFF;stop-opacity:0"/>
		</linearGradient>
		<path class="st11" d="M8.7,18.3c3.5-2.1,6.6-3.7,9-4.9c-0.4-0.1-0.9-0.1-1.3-0.1C13,13.3,10,15.4,8.7,18.3z"/>
	</g>
</g>
</svg>
